<?xml version="1.0" encoding="utf-8"?>
<!-- Generator: Adobe Illustrator 16.0.3, SVG Export Plug-In . SVG Version: 6.00 Build 0)  -->
<!DOCTYPE svg PUBLIC "-//W3C//DTD SVG 1.1//EN" "http://www.w3.org/Graphics/SVG/1.1/DTD/svg11.dtd">
<svg version="1.1" id="レイヤー_1" xmlns="http://www.w3.org/2000/svg" xmlns:xlink="http://www.w3.org/1999/xlink" x="0px"
	 y="0px" width="266.205px" height="136px" viewBox="0 0 266.205 136" enable-background="new 0 0 266.205 136"
	 xml:space="preserve">
<g>
	<path fill="#3FB4BF" d="M136.135,86.618c0.702,0,1.296,0.054,1.836,0.161v-5.993c-0.54-0.108-0.972-0.162-1.565-0.162
		c-3.24,0-6.372,2.321-7.723,6.103h-0.216l-0.216-5.455h-5.454c0.006,0.092,0.009,0.188,0.014,0.279l6.646,11.512
		C130.108,89.125,132.552,86.618,136.135,86.618z"/>
	<path fill="#3FB4BF" d="M148.5,86.727h-0.216l-0.216-5.455h-5.454c0.162,2.754,0.216,5.617,0.216,9.072v20.683h6.264V95.258
		c0-5.184,2.646-8.64,6.858-8.64c0.702,0,1.296,0.054,1.836,0.161v-5.993c-0.54-0.108-0.972-0.162-1.565-0.162
		C152.982,80.624,149.851,82.945,148.5,86.727z"/>
	<path fill="#3FB4BF" d="M183.492,92.721c0-6.318-2.431-12.097-11.179-12.097c-3.996,0-7.506,1.134-9.612,2.483l1.296,4.158
		c1.891-1.242,4.591-2.052,7.236-2.052c5.994,0,5.994,4.429,5.994,6.642c-10.206,0-16.632,3.673-16.632,11.07
		c0,4.59,3.186,8.695,8.748,8.695c3.726,0,6.642-1.729,8.316-4.051h0.161l0.433,3.456h5.67c-0.378-1.944-0.432-4.536-0.432-7.074
		V92.721z M177.39,100.982c0,3.456-2.808,6.048-6.21,6.048c-2.322,0-4.374-1.458-4.374-4.752c0-5.292,5.67-6.21,10.584-6.21V100.982
		z"/>
	<path fill="#3FB4BF" d="M197.046,86.727h-0.216l-0.216-5.455h-5.454c0.162,2.754,0.216,5.617,0.216,9.072v20.683h6.264V95.258
		c0-5.184,2.646-8.64,6.858-8.64c0.702,0,1.296,0.054,1.836,0.161v-5.993c-0.54-0.108-0.972-0.162-1.565-0.162
		C201.528,80.624,198.396,82.945,197.046,86.727z"/>
	<path fill="#3FB4BF" d="M214.379,69.392c-2.159,0-3.672,1.565-3.672,3.673c0,1.998,1.458,3.617,3.618,3.617
		c2.269,0,3.672-1.619,3.672-3.617C217.997,70.957,216.539,69.392,214.379,69.392z"/>
	<rect x="211.193" y="81.218" fill="#3FB4BF" width="6.264" height="29.809"/>
	<path fill="#3FB4BF" d="M237.653,80.624c-7.885,0-14.04,5.67-14.04,15.714c0,9.612,5.886,15.283,13.607,15.283
		c6.696,0,13.933-4.591,13.933-15.715C251.153,86.779,245.808,80.624,237.653,80.624z M237.383,106.922
		c-4.59,0-7.344-4.914-7.344-10.746c0-5.13,2.052-10.854,7.398-10.854c5.237,0,7.29,5.832,7.29,10.746
		C244.728,102.008,241.919,106.922,237.383,106.922z"/>
	<path fill="#3FB4BF" d="M104.815,85.105c-4.59,0-6.534,4.537-6.858,7.992h13.068C111.08,89.534,109.622,85.105,104.815,85.105z"/>
	<path fill="#3FB4BF" d="M129.457,93.063c-0.114,0.691-0.181,1.422-0.181,2.195v15.769h-6.264V90.344
		c0-3.34-0.053-6.123-0.202-8.793L81.622,10.209c-2.798-4.844-7.373-4.844-10.17,0L8.229,119.717
		c-2.797,4.844-0.508,8.807,5.085,8.807H139.76c5.593,0,7.882-3.963,5.085-8.807L129.457,93.063z M90.992,75.063H79.813v35.964
		H73.55V75.063H62.426v-5.347h28.566V75.063z M116.804,97.58h-18.9c0.162,6.696,4.32,9.234,9.019,9.234
		c3.294,0,5.562-0.594,7.506-1.404l1.026,4.428c-2.106,0.973-5.4,1.783-9.45,1.783c-8.965,0-14.148-5.994-14.148-15.066
		c0-8.856,4.968-15.931,13.393-15.931c8.37,0,11.718,6.966,11.718,14.31C116.966,95.96,116.912,96.824,116.804,97.58z"/>
</g>
</svg>
